:FULLY-SPECIFIED
:FORCE-ALL-JOINTS-BE-3DOF
:DEGREES
612
root -4.26076 15.6674 -40.4018 -3.09969 -75.5237 10.2065
lfemur -8.31005 13.2266 -16.507
ltibia 44.0566 -0 0
lfoot -22.0892 29.9008 0.00104964
ltoes -24.0581 0 0
rfemur -41.3748 -32.2725 18.3403
rtibia 78.9641 -0 0
rfoot -15.1924 -19.303 0.056276
rtoes -3.32802 0 0
lowerback 10.4373 4.95536 -6.63786
upperback -2.80987 5.56941 -1.35285
thorax -9.3946 3.00515 1.21772
lowerneck 1.2751 -10.7143 -11.8674
upperneck -0.743371 -14.5388 11.6115
head 1.30112 -7.29974 5.03346
lclavicle -6.06092e-14 2.08338e-15 -7.61274e-32
lhumerus -72.1507 -23.9695 105.224
lradius 102.263 -0 0
lwrist 56.092 0 0
lhand 7.82384 56.9072 6.75835e-06
lfingers 7.12502 -0 0
lthumb 33.0596 83.8948 6.37448e-06
rclavicle -6.06092e-14 2.08338e-15 -7.61274e-32
rhumerus 26.9515 17.2776 -46.8371
rradius 98.6809 -0 0
rwrist -29.2373 0 0
rhand -25.1152 -35.2283 -0.00632703
rfingers 7.12502 -0 0
rthumb 1.40014 -65.1949 -0.00505717
613
root -4.23222 15.6793 -40.3827 -2.92942 -75.605 10.0833
lfemur -8.45062 13.2641 -16.6188
ltibia 44.0803 -0 0
lfoot -22.0716 29.9349 0.000607732
ltoes -24.1036 0 0
rfemur -41.2103 -32.4112 18.4809
rtibia 79.1275 -0 0
rfoot -15.306 -19.5832 0.0325788
rtoes -3.26936 0 0
lowerback 10.384 4.96808 -6.66062
upperback -2.83951 5.5848 -1.37375
thorax -9.39791 3.01404 1.2068
lowerneck 1.251 -10.7054 -11.8663
upperneck -0.704623 -14.5274 11.6325
head 1.31668 -7.29358 5.03704
lclavicle -6.16806e-14 2.04252e-15 -4.40775e-32
lhumerus -72.1624 -24.0122 105.238
lradius 102.255 -0 0
lwrist 56.0358 0 0
lhand 7.82349 56.896 3.91306e-06
lfingers 7.12502 -0 0
lthumb 33.0592 83.8837 3.6908e-06
rclavicle -6.16806e-14 2.04252e-15 -4.40775e-32
rhumerus 27.1 17.2983 -46.8426
rradius 99.4672 -0 0
rwrist -29.6592 0 0
rhand -25.2545 -35.2023 -0.00366321
rfingers 7.12502 -0 0
rthumb 1.26572 -65.1733 -0.002928
614
root -4.2113 15.6879 -40.3687 -2.80353 -75.6645 9.99202
lfemur -8.55374 13.2915 -16.7008
ltibia 44.0977 -0 0
lfoot -22.0586 29.96 0.000277052
ltoes -24.1369 0 0
rfemur -41.0898 -32.5132 18.5839
rtibia 79.2473 -0 0
rfoot -15.3892 -19.7886 0.0148507
rtoes -3.22636 0 0
lowerback 10.345 4.97739 -6.67731
upperback -2.86123 5.59608 -1.38907
thorax -9.40034 3.02055 1.1988
lowerneck 1.23333 -10.6989 -11.8654
upperneck -0.676214 -14.519 11.648
head 1.32809 -7.28907 5.03967
lclavicle -6.24661e-14 2.01256e-15 -2.00943e-32
lhumerus -72.1709 -24.0435 105.248
lradius 102.249 -0 0
lwrist 55.9947 0 0
lhand 7.82324 56.8877 1.7839e-06
lfingers 7.12502 -0 0
lthumb 33.059 83.8755 1.68258e-06
rclavicle -6.24661e-14 2.01256e-15 -2.00943e-32
rhumerus 27.2089 17.3135 -46.8466
rradius 100.044 -0 0
rwrist -29.9685 0 0
rhand -25.3566 -35.1832 -0.00166997
rfingers 7.12502 -0 0
rthumb 1.16717 -65.1575 -0.0013348
615
root -4.19843 15.6933 -40.36 -2.72563 -75.7011 9.93538
lfemur -8.61722 13.3083 -16.7513
ltibia 44.1084 -0 0
lfoot -22.0506 29.9754 7.07913e-05
ltoes -24.1574 0 0
rfemur -41.0157 -32.576 18.6471
rtibia 79.321 -0 0
rfoot -15.4404 -19.915 0.00379444
rtoes -3.1999 0 0
lowerback 10.321 4.98312 -6.68758
upperback -2.8746 5.60302 -1.3985
thorax -9.40184 3.02456 1.19388
lowerneck 1.22246 -10.695 -11.8649
upperneck -0.658735 -14.5139 11.6575
head 1.33511 -7.28629 5.04128
lclavicle -6.29494e-14 1.99413e-15 -5.13449e-33
lhumerus -72.1762 -24.0627 105.254
lradius 102.245 -0 0
lwrist 55.9693 0 0
lhand 7.82308 56.8826 4.55822e-07
lfingers 7.12502 -0 0
lthumb 33.0589 83.8704 4.29932e-07
rclavicle -6.29494e-14 1.99413e-15 -5.13449e-33
rhumerus 27.2759 17.3228 -46.8491
rradius 100.398 -0 0
rwrist -30.1587 0 0
rhand -25.4194 -35.1715 -0.000426705
rfingers 7.12502 -0 0
rthumb 1.10654 -65.1478 -0.000341065
616
root -4.19404 15.6951 -40.3571 357.301 -75.7136 369.916
lfemur -8.63886 13.314 -16.7685
ltibia 44.112 0 0
lfoot -22.0479 29.9806 0
ltoes -24.1644 0 0
rfemur -40.9905 -32.5974 18.6687
rtibia 79.3461 0 0
rfoot -15.4578 -19.9581 0
rtoes -3.19088 0 0
lowerback 10.3128 4.98507 -6.69108
upperback -2.87916 5.60538 -1.40172
thorax -9.40235 3.02593 1.1922
lowerneck 1.21875 -10.6936 -11.8647
upperneck -0.652777 -14.5121 11.6607
head 1.3375 -7.28534 5.04183
lclavicle -6.31141e-14 1.98785e-15 0
lhumerus -72.178 -24.0693 105.256
lradius 102.244 0 0
lwrist 55.9607 0 0
lhand 7.82303 56.8809 0
lfingers 7.12502 0 0
lthumb 33.0588 83.8687 0
rclavicle -6.31141e-14 1.98785e-15 0
rhumerus 27.2987 17.326 -46.8499
rradius 100.519 0 0
rwrist -30.2236 0 0
rhand -25.4408 -35.1675 0
rfingers 7.12502 0 0
rthumb 1.08587 -65.1445 0
617
root -4.19846 15.6946 -40.3557 -2.62336 -75.7482 9.83234
lfemur -8.74156 13.3108 -16.7693
ltibia 44.1712 -0 0
lfoot -22.0224 29.9241 -0.00739528
ltoes -24.1455 0 0
rfemur -40.932 -32.5768 18.6755
rtibia 79.2977 -0 0
rfoot -15.4746 -19.9766 0.00155044
rtoes -3.21707 0 0
lowerback 10.3227 4.98073 -6.66887
upperback -2.87721 5.60268 -1.39194
thorax -9.40475 3.02354 1.19057
lowerneck 1.21267 -10.6801 -11.8532
upperneck -0.647869 -14.4935 11.6499
head 1.33715 -7.27582 5.03786
lclavicle -6.30097e-14 1.92011e-15 3.50821e-32
lhumerus -72.0156 -24.1125 105.223
lradius 102.21 -0 0
lwrist 55.8634 0 0
lhand 7.80731 56.8244 0.00453594
lfingers 7.12502 -0 0
lthumb 33.0437 83.8148 0.00413176
rclavicle -6.30097e-14 1.92011e-15 3.50821e-32
rhumerus 27.2969 17.3365 -46.8837
rradius 100.541 -0 0
rwrist -30.2504 0 0
rhand -25.3799 -35.1217 0.0145456
rfingers 7.12502 -0 0
rthumb 1.14403 -65.0928 0.0157483
